<?xml version="1.0" encoding="UTF-8"?>
<svg id="Layer_1" xmlns="http://www.w3.org/2000/svg" viewBox="0 0 4183 4183">
  <defs>
    <style>
      .cls-1 {
        fill: #00ffbf;
      }

      .cls-2 {
        fill: #333;
      }
    </style>
  </defs>
  <rect class="cls-2" width="4183" height="4183" rx="490.01" ry="490.01"/>
  <path class="cls-1" d="M3403.61,2839.22c-206.35-44.69-547.43-16.65-745.61-173.22-47.72-37.7-75.87-77.19-93.29-113.99-51-107.72-43.48-257.71,14.55-323.86,177.75-202.61,634.34,208.12,1039.77,26.4,356.95-159.99,547.02-721.97,388.97-998.8-8.53-14.94-17.81-25.99-35.56-48.57-155.87-198.3-330.41-248.51-441.44-319.18-296.01-188.41-279.82-610.82-325.43-601.1-53.86,11.48-104.25,606.38,189.43,806.1,134.67,91.59,302.79,73.62,407,236,49.72,77.48,58.13,153.71,61,188,17.78,212.47-114.82,461.06-311,560-379.83,191.56-936.66-208.76-929.49-229.53.67-1.94,6.48-.76,12.98-.9,27.4-.6,104.05-16.05,285.13-196.71,210.87-210.39,357.71-559.39,267.32-849.12C2992.83,175.33,1710.59-115.67,1249.14,406.46c-221.71,250.87-263.2,699.91-72.34,1034.27,11.3,19.79,21.58,35.95,32,50.67,45.81,64.78,88.42,110.61,107.55,130.39,1.33,1.37,2.27,2.34,2.98,3.06,1.3,1.32,2.24,2.29,2.26,2.31,1.12,1.14,69.98,79.33,90.32,171.17,31.73,143.32-62.97,282.51-73.26,297.21-9.57,13.68-9.32,10.99-49.93,56.96-82.33,93.17-136.83,162.87-171.7,206.5-239.05,299.04-358.58,448.55-448,447-156.3-2.72-265.16-251.76-281-288-93.75-214.49-43.87-447.78-8.32-613.98,6.98-32.64,13.42-79.65,36.63-137.65,53.66-134.07,142.86-202.88,224.29-401.52,132.74-323.8,97.33-632.74,70.99-637.26-24.65-4.23-43.16,257.74-236.17,561.45-94.59,148.84-128.12,145.66-201.82,255.8-204.3,305.31-215.06,730.78-93.64,1062.04,51.55,140.65,169.34,462,414.52,502.57,188.45,31.18,363.95-126.23,439.14-193.2,129.4-115.25,123.79-192.86,336.03-457.34,104.66-130.43,183.52-227.3,224.31-209.55,46.69,20.31,45.3,191.59-14.65,332.86-122.26,288.11-403.93,251.55-712.52,591.23-112.87,124.24-262.49,286.75-225.97,452.55,47.5,215.65,389.38,346.61,660.18,320.01,432.29-42.46,695.28-487.61,657.28-537.59-28.82-37.92-279.31,87.94-407.78,164.09-159.45,94.51-184.83,144.23-285.85,163.33-144.68,27.36-338.49-15.57-386.58-131.24-46.29-111.31,59.01-249.1,115.93-323.59,273.45-357.84,591.24-265.48,858.27-601.79,125.36-157.89,152.42-301.08,231.23-293.48,104.17,10.04,115.46,267.06,360.49,413.98,11.35,6.81,41.43,24.55,110.06,51.78,331.75,131.6,556.56,86.28,752.95,143.52,315.17,91.86,598.23,459.82,527,665-96.91,279.15-831.16,204.01-902.61,109.1-2.45-3.26-29.77-37.09-66.01-87.77-13.56-18.96-31.39-42.43-56.88-72.83-66.22-78.96-232.76-262.66-268.75-239.72-41.8,26.66,31.92,371.92,258.99,549.87,397.7,311.67,1220.92,100.96,1307.73-241.68,70.84-279.61-298.88-750.25-702.86-837.75Z"/>
</svg>